# xmcd
#
# Track frame offsets:
#	150
#	20842
#	43247
#	62092
#	82802
#
# Disc length: 1400 seconds
#
# Revision: 1
# Processed by: cddbd v1.5PL3 Copyright (c) Steve Scherf et al.
# Submitted via: CDex 1.50Beta5
#
DISCID=3b057605
DTITLE=Sowelu - Rainbow - Breath 〜想いの容量〜
DYEAR=2003
DGENRE=Pop
TTITLE0=1-Rainbow (Original Mix)
TTITLE1=2-Breath 〜想いの容量〜
TTITLE2=Rainbow (Chinese Flavor Mix)
TTITLE3=Rainbow (Less Vocal)
TTITLE4=Breath 〜想いの容量〜 (Less Vocal)
EXTD=
EXTT0=
EXTT1=
EXTT2=
EXTT3=
EXTT4=
PLAYORDER=
